<?xml version="1.0" encoding="utf-8"?>
<!-- Generator: Adobe Illustrator 16.0.0, SVG Export Plug-In . SVG Version: 6.00 Build 0)  -->
<!DOCTYPE svg PUBLIC "-//W3C//DTD SVG 1.1//EN" "http://www.w3.org/Graphics/SVG/1.1/DTD/svg11.dtd">
<svg version="1.1" id="Layer_1" xmlns="http://www.w3.org/2000/svg" xmlns:xlink="http://www.w3.org/1999/xlink" x="0px" y="0px"
	 width="600px" height="79.3px" viewBox="0 0 600 79.3" enable-background="new 0 0 600 79.3" xml:space="preserve">
<path opacity="0.5" d="M0,0L0,0c0,9.998,22.956,45.373,43.2,49.565c20.341,4.257,45.524,6.32,75.164,6.32h69.352
	c23.538,0,44.363,1.871,62.282,5.806c17.919,3.935,41.428,9.805,51.501,17.609c10.364-7.869,15.042-13.675,33.154-17.609
	c18.017-3.935,38.648-5.806,61.798-5.806h68.965c29.64,0,54.146-2.063,74.195-6.32C559.566,45.373,581.166,11.159,581.166,0l0,0"/>
<path d="M0,0L0,0c0,15.5,23.7,26.7,44.6,33.2c21,6.6,47,9.799,77.6,9.799h71.6c24.3,0,45.8,2.9,64.3,9
	c18.5,6.101,33,15.201,43.4,27.301c10.7-12.2,25.3-21.2,44-27.301c18.6-6.1,39.9-9,63.8-9h71.2c30.6,0,55.9-3.2,76.6-9.799
	C577.7,26.7,600,17.3,600,0l0,0"/>
</svg>
